<?xml version="1.0" encoding="UTF-8"?>
<!DOCTYPE svg PUBLIC "-//W3C//DTD SVG 1.1//EN" "http://www.w3.org/Graphics/SVG/1.1/DTD/svg11.dtd">
<svg xmlns="http://www.w3.org/2000/svg" version="1.1" width="64px" height="54px" style="shape-rendering:geometricPrecision; text-rendering:geometricPrecision; image-rendering:optimizeQuality; fill-rule:evenodd; clip-rule:evenodd" xmlns:xlink="http://www.w3.org/1999/xlink">
<g><path style="opacity:1" fill="#000000" d="M 16.5,-0.5 C 16.8333,-0.5 17.1667,-0.5 17.5,-0.5C 17.5,-0.166667 17.5,0.166667 17.5,0.5C 17.1667,0.166667 16.8333,-0.166667 16.5,-0.5 Z"/></g>
<g><path style="opacity:1" fill="#000000" d="M 45.5,-0.5 C 45.8333,-0.5 46.1667,-0.5 46.5,-0.5C 46.3147,0.170143 45.9813,0.170143 45.5,-0.5 Z"/></g>
<g><path style="opacity:1" fill="#0d6fcd" d="M 17.5,0.5 C 19.6298,2.12706 21.6298,3.96039 23.5,6C 22.3147,7.35301 20.9814,8.51968 19.5,9.5C 17.8713,6.73408 17.2046,3.73408 17.5,0.5 Z"/></g>
<g><path style="opacity:1" fill="#e59a09" d="M 45.5,0.5 C 45.5429,3.90991 45.0429,7.24324 44,10.5C 42.6487,8.98101 41.1487,7.64768 39.5,6.5C 41.1878,4.14552 43.1878,2.14552 45.5,0.5 Z"/></g>
<g><path style="opacity:1" fill="#0e6fcb" d="M 31.5,16.5 C 30.9238,24.111 31.5905,31.4444 33.5,38.5C 32.1266,38.3433 30.7932,38.51 29.5,39C 30.6537,39.9138 30.487,40.7471 29,41.5C 26.9128,38.3272 25.0795,34.9939 23.5,31.5C 21.3102,29.476 18.9768,27.6427 16.5,26C 17.5,25.6667 18.5,25.3333 19.5,25C 17.5,23.6667 15.5,22.3333 13.5,21C 16.172,19.4426 19.0053,18.276 22,17.5C 24.6162,19.1122 26.9495,21.1122 29,23.5C 29.3903,20.8958 30.2237,18.5625 31.5,16.5 Z"/></g>
<g><path style="opacity:1" fill="#f0a205" d="M 31.5,16.5 C 32.7763,18.5625 33.6097,20.8958 34,23.5C 36.0505,21.1122 38.3838,19.1122 41,17.5C 43.9947,18.276 46.828,19.4426 49.5,21C 47.5,22.3333 45.5,23.6667 43.5,25C 44.5,25.3333 45.5,25.6667 46.5,26C 40.6548,29.1668 36.8215,34.0002 35,40.5C 32.9068,41.234 32.4068,40.5673 33.5,38.5C 31.5905,31.4444 30.9238,24.111 31.5,16.5 Z"/></g>
<g><path style="opacity:1" fill="#1566bb" d="M 0.5,42.5 C 2.91243,42.244 4.57909,43.244 5.5,45.5C 6.83333,44.5 8.16667,43.5 9.5,42.5C 10.8333,45.8333 10.8333,49.1667 9.5,52.5C 8.69221,50.5767 8.19221,48.5767 8,46.5C 7.13053,49.7626 5.79719,50.0959 4,47.5C 3.50649,49.1341 3.33982,50.8008 3.5,52.5C 2.5,52.5 1.5,52.5 0.5,52.5C 0.5,49.1667 0.5,45.8333 0.5,42.5 Z"/></g>
<g><path style="opacity:1" fill="#0c70cd" d="M 15.5,42.5 C 16.675,42.281 17.675,42.6143 18.5,43.5C 20.0867,46.5212 20.7533,49.5212 20.5,52.5C 18.5784,50.9969 17.4117,48.9969 17,46.5C 15.8855,47.9999 15.0521,49.6666 14.5,51.5C 13.635,52.5827 12.635,52.7494 11.5,52C 13.1289,48.9434 14.4622,45.7768 15.5,42.5 Z"/></g>
<g><path style="opacity:1" fill="#0674d6" d="M 21.5,42.5 C 24.5719,42.1826 27.5719,42.5159 30.5,43.5C 29.3112,44.4287 27.9778,44.762 26.5,44.5C 25.8333,55.1667 25.1667,55.1667 24.5,44.5C 23.1266,44.6567 21.7932,44.49 20.5,44C 21.056,43.6174 21.3893,43.1174 21.5,42.5 Z"/></g>
<g><path style="opacity:1" fill="#0077dd" d="M 32.5,42.5 C 35.5184,42.3354 38.5184,42.502 41.5,43C 39.0632,44.3747 36.3965,44.8747 33.5,44.5C 33.5,46.5 33.5,48.5 33.5,50.5C 36.1873,50.3359 38.854,50.5026 41.5,51C 32.2462,54.914 29.2462,52.0807 32.5,42.5 Z"/></g>
<g><path style="opacity:1" fill="#116bc4" d="M 44.5,42.5 C 51.6317,42.7891 53.2983,45.9558 49.5,52C 45.2996,53.3097 42.6329,51.8097 41.5,47.5C 42.2599,45.6396 43.2599,43.973 44.5,42.5 Z M 46.5,44.5 C 50.1844,46.2033 50.351,48.2033 47,50.5C 43.8981,48.6627 43.7314,46.6627 46.5,44.5 Z"/></g>
<g><path style="opacity:1" fill="#0077dd" d="M 52.5,43.5 C 55.3035,42.3622 58.3035,42.1955 61.5,43C 63.1397,45.7758 62.473,47.7758 59.5,49C 60.5,50 61.5,51 62.5,52C 61.5,52.6667 60.5,52.6667 59.5,52C 57.6452,49.6127 55.3118,47.946 52.5,47C 63.0203,46.118 63.0203,44.9513 52.5,43.5 Z"/></g>
</svg>
