<?xml version="1.0" encoding="UTF-8"?>
<!DOCTYPE svg PUBLIC "-//W3C//DTD SVG 1.1//EN" "http://www.w3.org/Graphics/SVG/1.1/DTD/svg11.dtd">
<svg xmlns="http://www.w3.org/2000/svg" version="1.1" width="128px" height="108px" style="shape-rendering:geometricPrecision; text-rendering:geometricPrecision; image-rendering:optimizeQuality; fill-rule:evenodd; clip-rule:evenodd" xmlns:xlink="http://www.w3.org/1999/xlink">
<g><path style="opacity:1" fill="#106cc6" d="M 34.5,0.5 C 38.9979,4.82985 43.6646,8.99652 48.5,13C 44.912,15.3773 41.412,17.8773 38,20.5C 36.5082,13.8819 35.3415,7.21523 34.5,0.5 Z"/></g>
<g><path style="opacity:1" fill="#e2980a" d="M 91.5,0.5 C 92.1239,0.916949 92.4573,1.58362 92.5,2.5C 91.8051,8.68183 90.4718,14.6818 88.5,20.5C 85.1897,18.5179 82.1897,16.1846 79.5,13.5C 83.5219,9.14648 87.5219,4.81314 91.5,0.5 Z"/></g>
<g><path style="opacity:1" fill="#0c70cd" d="M 64.5,32.5 C 63.504,46.9905 63.1707,61.6572 63.5,76.5C 62.1266,76.3433 60.7932,76.51 59.5,77C 60.4061,78.6995 60.7394,80.5328 60.5,82.5C 59.0222,82.762 57.6888,82.4287 56.5,81.5C 53.3333,75.1667 50.1667,68.8333 47,62.5C 42.4095,59.1208 37.9095,55.6208 33.5,52C 36.1667,51.6667 38.8333,51.3333 41.5,51C 36.8249,48.6642 32.4916,45.8309 28.5,42.5C 33.9079,39.7131 39.4079,37.0464 45,34.5C 50.2069,39.2013 55.2069,44.2013 60,49.5C 58.9438,43.1409 60.1105,37.1409 63.5,31.5C 64.1067,31.6236 64.44,31.9569 64.5,32.5 Z M 55.5,50.5 C 53.795,49.4647 52.1284,49.4647 50.5,50.5C 45.5123,46.2392 46.5123,45.4058 53.5,48C 54.3805,48.7083 55.0472,49.5416 55.5,50.5 Z"/></g>
<g><path style="opacity:1" fill="#eea106" d="M 64.5,32.5 C 67.2332,37.9595 67.8998,43.6261 66.5,49.5C 65.4963,52.105 65.8296,52.105 67.5,49.5C 71.8883,44.0448 76.7216,39.0448 82,34.5C 87.5921,37.0464 93.0921,39.7131 98.5,42.5C 94.5084,45.8309 90.1751,48.6642 85.5,51C 88.1667,51.3333 90.8333,51.6667 93.5,52C 89.0905,55.6208 84.5905,59.1208 80,62.5C 76.8333,68.8333 73.6667,75.1667 70.5,81.5C 69.3112,82.4287 67.9778,82.762 66.5,82.5C 66.2606,80.5328 66.5939,78.6995 67.5,77C 66.2068,76.51 64.8734,76.3433 63.5,76.5C 63.1707,61.6572 63.504,46.9905 64.5,32.5 Z M 71.5,50.5 C 73.7157,47.4809 76.7157,46.3143 80.5,47C 79.3147,48.353 77.9814,49.5197 76.5,50.5C 74.8716,49.4647 73.205,49.4647 71.5,50.5 Z"/></g>
<g><path style="opacity:1" fill="#000000" d="M 66.5,49.5 C 66.8333,49.5 67.1667,49.5 67.5,49.5C 65.8296,52.105 65.4963,52.105 66.5,49.5 Z"/></g>
<g><path style="opacity:1" fill="#1269c1" d="M 1.5,85.5 C 3.19919,85.3398 4.86586,85.5065 6.5,86C 8.33333,88.5 10.1667,91 12,93.5C 13.597,88.7192 16.7637,86.0525 21.5,85.5C 21.5,92.1667 21.5,98.8333 21.5,105.5C 20.1667,105.5 18.8333,105.5 17.5,105.5C 17.6655,101.486 17.4988,97.4862 17,93.5C 15.0879,95.6572 13.4213,97.9906 12,100.5C 10.3333,98.1667 8.66667,95.8333 7,93.5C 6.50115,97.4862 6.33449,101.486 6.5,105.5C 4.83333,105.5 3.16667,105.5 1.5,105.5C 1.5,98.8333 1.5,92.1667 1.5,85.5 Z"/></g>
<g><path style="opacity:1" fill="#0e6dc8" d="M 30.5,85.5 C 32.8333,85.5 35.1667,85.5 37.5,85.5C 39.6983,92.096 41.6983,98.7627 43.5,105.5C 41.8333,105.5 40.1667,105.5 38.5,105.5C 37.5792,100.986 36.0792,96.6529 34,92.5C 32.4017,96.4612 30.9017,100.461 29.5,104.5C 27.9547,105.452 26.288,105.785 24.5,105.5C 26.6983,98.904 28.6983,92.2373 30.5,85.5 Z"/></g>
<g><path style="opacity:1" fill="#0574d7" d="M 44.5,85.5 C 50.5092,85.3338 56.5092,85.5005 62.5,86C 61.1636,89.832 58.4969,91.332 54.5,90.5C 54.5,95.5 54.5,100.5 54.5,105.5C 52.8333,105.5 51.1667,105.5 49.5,105.5C 49.5,100.5 49.5,95.5 49.5,90.5C 46.8127,90.6641 44.146,90.4974 41.5,90C 42.3862,88.3853 43.3862,86.8853 44.5,85.5 Z"/></g>
<g><path style="opacity:1" fill="#0872d2" d="M 66.5,85.5 C 72.2055,85.1712 77.8722,85.5046 83.5,86.5C 82.6872,87.8139 81.6872,88.9805 80.5,90C 76.1794,90.499 71.8461,90.6657 67.5,90.5C 67.5,93.8333 67.5,97.1667 67.5,100.5C 72.8746,100.172 78.2079,100.505 83.5,101.5C 83.032,103.134 82.032,104.3 80.5,105C 75.0509,105.896 69.7175,105.563 64.5,104C 63.3611,98.5838 63.1944,93.0838 64,87.5C 64.9947,86.9341 65.828,86.2674 66.5,85.5 Z"/></g>
<g><path style="opacity:1" fill="#0f6dc8" d="M 91.5,85.5 C 101.65,85.8042 105.483,90.8042 103,100.5C 96.5084,107.425 90.5084,107.092 85,99.5C 83.1702,92.8316 85.3369,88.1649 91.5,85.5 Z M 91.5,90.5 C 98.5244,90.4885 100.524,93.4885 97.5,99.5C 92.9819,101.596 89.9819,100.262 88.5,95.5C 89.2599,93.6396 90.2599,91.973 91.5,90.5 Z"/></g>
<g><path style="opacity:1" fill="#0c70cd" d="M 105.5,85.5 C 111.952,85.0845 118.285,85.5845 124.5,87C 127.099,92.8068 125.432,96.4735 119.5,98C 121.874,100.039 123.874,102.372 125.5,105C 120.07,105.785 116.07,103.618 113.5,98.5C 109.633,98.3683 106.966,96.535 105.5,93C 110.864,92.8295 116.198,92.3295 121.5,91.5C 117.204,90.6725 112.871,90.1725 108.5,90C 106.859,88.871 105.859,87.371 105.5,85.5 Z"/></g>
</svg>
